<?xml version="1.0" encoding="utf-8"?>
<!-- Generator: Adobe Illustrator 19.0.0, SVG Export Plug-In . SVG Version: 6.00 Build 0)  -->
<svg version="1.1" id="Layer_1" xmlns="http://www.w3.org/2000/svg" xmlns:xlink="http://www.w3.org/1999/xlink" x="0px" y="0px"
	 viewBox="0 0 512 512" style="enable-background:new 0 0 512 512;" xml:space="preserve">
<style type="text/css">
	.st0{fill:#B2B2B2;}
	.st1{fill:none;stroke:#E5E5E5;stroke-width:10;stroke-linecap:round;stroke-linejoin:round;stroke-miterlimit:10;}
	.st2{fill:none;stroke:#BD66D3;stroke-width:10;stroke-linecap:round;stroke-linejoin:round;stroke-miterlimit:10;}
</style>
<g id="XMLID_53_">
	<circle id="XMLID_41_" class="st0" cx="100.7" cy="333" r="19.8"/>
	<circle id="XMLID_43_" class="st0" cx="69.7" cy="297.5" r="12"/>
	<circle id="XMLID_44_" class="st0" cx="91.3" cy="263.2" r="12"/>
	<circle id="XMLID_45_" class="st0" cx="62.7" cy="251.2" r="7.7"/>
	<circle id="XMLID_46_" class="st0" cx="81.7" cy="231.7" r="5.1"/>
</g>
<g id="XMLID_17_">
	<circle id="XMLID_38_" class="st1" cx="255.3" cy="255.9" r="227.7"/>
</g>
<g id="XMLID_9_">
	<path id="XMLID_42_" class="st1" d="M354.3,31.9c26.4,11.7,50.4,27.9,70.9,47.7"/>
	<path id="XMLID_40_" class="st1" d="M27.6,346.1c-11.1-27.9-17.1-58.3-17.1-90.1c0-135.2,109.6-244.8,244.8-244.8
		c19.4,0,38.4,2.3,56.5,6.6"/>
	<path id="XMLID_39_" class="st1" d="M468.9,136.1c19.9,35.4,31.3,76.3,31.3,119.8c0,135.2-109.6,244.8-244.8,244.8
		c-55.3,0-106.2-18.3-147.2-49.2"/>
</g>
<g id="XMLID_52_">
	<circle id="XMLID_51_" class="st0" cx="409.9" cy="353.8" r="19.8"/>
	<circle id="XMLID_50_" class="st0" cx="441" cy="318.3" r="12"/>
	<circle id="XMLID_49_" class="st0" cx="419.4" cy="284" r="12"/>
	<circle id="XMLID_48_" class="st0" cx="448" cy="272" r="7.7"/>
	<circle id="XMLID_47_" class="st0" cx="428.9" cy="252.5" r="5.1"/>
</g>
<g id="XMLID_94_">
	<circle id="XMLID_89_" class="st0" cx="270.1" cy="450.6" r="14.5"/>
	<circle id="XMLID_91_" class="st0" cx="175.3" cy="431.9" r="14.9"/>
	<circle id="XMLID_90_" class="st0" cx="222.1" cy="428.4" r="11.3"/>
	<circle id="XMLID_88_" class="st0" cx="317.5" cy="433.7" r="18"/>
	<circle id="XMLID_87_" class="st0" cx="262.3" cy="419.6" r="6.7"/>
	<circle id="XMLID_86_" class="st0" cx="234" cy="454.3" r="3.6"/>
</g>
<g id="XMLID_4_">
	<path id="XMLID_1_" class="st2" d="M368.4,247.3L256.7,284L145,247.3c-9.7-3.9-19-8.6-19-19V178c0-10.4,8.5-19,19-19h223.3
		c10.5,0,19,8.6,19,19v50.3C387.4,238.8,379.8,243,368.4,247.3z"/>
	<path id="XMLID_2_" class="st2" d="M379.1,245v85.3c0,10.4-8.5,19-19,19H153.2c-10.5,0-19-8.6-19-19V245"/>
	<path id="XMLID_3_" class="st2" d="M209.5,159v-15.7c0-10.5,8.6-19,19-19h56.3c10.5,0,19,8.5,19,19V159"/>
</g>
</svg>
