<?xml version="1.0" encoding="utf-8"?>
<!-- Generator: Adobe Illustrator 19.0.0, SVG Export Plug-In . SVG Version: 6.00 Build 0)  -->
<svg version="1.1" id="Layer_1" xmlns="http://www.w3.org/2000/svg" xmlns:xlink="http://www.w3.org/1999/xlink" x="0px" y="0px"
	 viewBox="0 0 1920 1080" style="enable-background:new 0 0 1920 1080;" xml:space="preserve">
<style type="text/css">
	.st0{fill:none;stroke:#FFFFFF;stroke-width:10;stroke-linejoin:round;stroke-miterlimit:10;}
	.st1{fill:#FFFFFF;}
</style>
<g id="XMLID_1_">
	<g id="XMLID_55_">
		<path id="XMLID_3_" class="st0" d="M254.7,201.5h134.2v40.7h-84.4v50.2h78.8v40.4h-78.8v88.3h-49.8V201.5z"/>
		<path id="XMLID_5_" class="st0" d="M426.4,204.5c16-2.6,39.7-4.6,66.1-4.6c32.6,0,55.4,4.9,71,17.3c13,10.4,20.2,25.7,20.2,45.9
			c0,28-19.9,47.2-38.8,54.1v1c15.3,6.2,23.8,20.9,29.3,41c6.8,24.8,13.7,53.4,17.9,61.9h-50.8c-3.6-6.2-8.8-24.1-15.3-51.1
			c-5.9-27.4-15.3-34.9-35.5-35.2h-15v86.3h-49.2V204.5z M475.5,298.9h19.5c24.8,0,39.4-12.4,39.4-31.6c0-20.2-13.7-30.3-36.5-30.6
			c-12.1,0-18.9,1-22.5,1.6V298.9z"/>
		<path id="XMLID_8_" class="st0" d="M750.2,328.3h-80.8v52.1h90.2v40.7H619.5V201.5h135.5v40.7h-85.7v45.6h80.8V328.3z"/>
		<path id="XMLID_21_" class="st0" d="M924.1,328.3h-80.8v52.1h90.2v40.7H793.5V201.5H929v40.7h-85.7v45.6h80.8V328.3z"/>
		<path id="XMLID_26_" class="st0" d="M967.5,204.5c18.2-2.9,42-4.6,67.1-4.6c41.7,0,68.7,7.5,89.9,23.5
			c22.8,16.9,37.1,44,37.1,82.8c0,42-15.3,71-36.5,88.9c-23.1,19.2-58.3,28.3-101.3,28.3c-25.7,0-44-1.6-56.4-3.3V204.5z
			 M1017.3,383.6c4.2,1,11.1,1,17.3,1c45,0.3,74.3-24.4,74.3-76.9c0.3-45.6-26.4-69.7-69.1-69.7c-11.1,0-18.2,1-22.5,2V383.6z"/>
		<path id="XMLID_29_" class="st0" d="M1395.2,309c0,72-43.7,115.7-107.8,115.7c-65.2,0-103.3-49.2-103.3-111.7
			c0-65.8,42-115,106.9-115C1358.4,197.9,1395.2,248.4,1395.2,309z M1236.6,312c0,43,20.2,73.3,53.4,73.3
			c33.6,0,52.8-31.9,52.8-74.6c0-39.4-18.9-73.3-53.1-73.3C1256.1,237.4,1236.6,269.3,1236.6,312z"/>
		<path id="XMLID_32_" class="st0" d="M1613.5,337.1c-1-26.4-2-58.3-2-90.2h-1c-6.8,28-16,59.3-24.4,85l-26.7,85.7h-38.8l-23.5-85
			c-7.2-25.7-14.7-57-19.9-85.7h-0.7c-1.3,29.6-2.3,63.5-3.9,90.9l-3.9,83.4h-45.9l14-219.6h66.1l21.5,73.3
			c6.8,25.4,13.7,52.8,18.6,78.5h1c6.2-25.4,13.7-54.4,20.9-78.8l23.5-73h64.8l12.1,219.6h-48.5L1613.5,337.1z"/>
	</g>
	<g id="XMLID_64_">
		<rect id="XMLID_57_" x="6" y="497.8" class="st1" width="579.3" height="32.2"/>
		<rect id="XMLID_58_" x="649.6" y="497.8" class="st1" width="185" height="32.2"/>
		<rect id="XMLID_59_" x="884.3" y="497.8" class="st1" width="121.4" height="32.2"/>
		<rect id="XMLID_60_" x="1048.5" y="497.8" class="st0" width="121.4" height="32.2"/>
		<rect id="XMLID_61_" x="1221.1" y="497.8" class="st0" width="121.4" height="32.2"/>
		<rect id="XMLID_62_" x="1405.5" y="497.8" class="st0" width="165.2" height="32.2"/>
		<rect id="XMLID_63_" x="1612.7" y="497.8" class="st0" width="296.4" height="32.2"/>
	</g>
	<g id="XMLID_65_">
		<path id="XMLID_34_" class="st1" d="M468.5,839.7c-9.1,4.6-29.6,9.4-56.4,9.4c-75.9,0-115-47.2-115-109.8
			c0-74.9,53.4-116.6,119.9-116.6c25.7,0,45.3,5.2,54.1,9.8L461.1,672c-10.1-4.2-24.1-8.1-41.7-8.1c-39.4,0-70,23.8-70,72.7
			c0,44,26.1,71.7,70.4,71.7c15,0,31.6-3.3,41.4-7.2L468.5,839.7z"/>
		<path id="XMLID_36_" class="st1" d="M501.1,629.3c16-2.6,39.7-4.6,66.1-4.6c32.6,0,55.4,4.9,71,17.3c13,10.4,20.2,25.7,20.2,45.9
			c0,28-19.9,47.2-38.8,54.1v1c15.3,6.2,23.8,20.9,29.3,41c6.8,24.8,13.7,53.4,17.9,61.9h-50.8c-3.6-6.2-8.8-24.1-15.3-51.1
			c-5.9-27.4-15.3-34.9-35.5-35.2h-15v86.3h-49.2V629.3z M550.3,723.8h19.5c24.8,0,39.4-12.4,39.4-31.6c0-20.2-13.7-30.3-36.5-30.6
			c-12.1,0-18.9,1-22.5,1.6V723.8z"/>
		<path id="XMLID_39_" class="st1" d="M824.9,753.1h-80.8v52.1h90.2v40.7H694.3V626.4h135.5v40.7h-85.7v45.6h80.8V753.1z"/>
		<path id="XMLID_41_" class="st1" d="M919.4,789.6l-15.6,56.4h-51.5l67.1-219.6h65.2l68.1,219.6h-53.4l-16.9-56.4H919.4z
			 M975.1,752.4l-13.7-46.6c-3.9-13-7.8-29.3-11.1-42.4h-0.7c-3.3,13-6.5,29.6-10.1,42.4l-13,46.6H975.1z"/>
		<path id="XMLID_44_" class="st1" d="M1097.3,668.1h-59v-41.7h168.8v41.7h-59.9v177.9h-49.8V668.1z"/>
		<path id="XMLID_46_" class="st1" d="M1425,733.9c0,72-43.7,115.7-107.8,115.7c-65.2,0-103.3-49.2-103.3-111.7
			c0-65.8,42-115,106.9-115C1388.2,622.8,1425,673.3,1425,733.9z M1266.4,736.8c0,43,20.2,73.3,53.4,73.3
			c33.6,0,52.8-31.9,52.8-74.6c0-39.4-18.9-73.3-53.1-73.3C1285.9,662.2,1266.4,694.1,1266.4,736.8z"/>
		<path id="XMLID_49_" class="st1" d="M1457.6,629.3c16-2.6,39.7-4.6,66.1-4.6c32.6,0,55.4,4.9,71,17.3c13,10.4,20.2,25.7,20.2,45.9
			c0,28-19.9,47.2-38.8,54.1v1c15.3,6.2,23.8,20.9,29.3,41c6.8,24.8,13.7,53.4,17.9,61.9h-50.8c-3.6-6.2-8.8-24.1-15.3-51.1
			c-5.9-27.4-15.3-34.9-35.5-35.2h-15v86.3h-49.2V629.3z M1506.8,723.8h19.5c24.8,0,39.4-12.4,39.4-31.6c0-20.2-13.7-30.3-36.5-30.6
			c-12.1,0-18.9,1-22.5,1.6V723.8z"/>
	</g>
</g>
</svg>
