<?xml version="1.0" encoding="utf-8"?>
<!-- Generator: Adobe Illustrator 19.0.0, SVG Export Plug-In . SVG Version: 6.00 Build 0)  -->
<svg version="1.1" id="Layer_1" xmlns="http://www.w3.org/2000/svg" xmlns:xlink="http://www.w3.org/1999/xlink" x="0px" y="0px"
	 viewBox="0 0 1920 1080" style="enable-background:new 0 0 1920 1080;" xml:space="preserve">
<style type="text/css">
	.st0{fill:none;stroke:#BCBCBC;stroke-width:10;stroke-linecap:round;stroke-miterlimit:10;}
	.st1{fill:#BCBCBC;}
</style>
<g id="XMLID_6_">
	<path id="XMLID_2_" class="st0" d="M368.4,923.5h50c28,0,51,22.9,51,51v147.9c0,28-22.9,51-51,51h-50c-28,0-51-22.9-51-51V974.4
		C317.5,946.4,340.4,923.5,368.4,923.5z"/>
	<path id="XMLID_3_" class="st0" d="M385.9,1048.4h15c3.3,0,6,2.7,6,6v51.4c0,3.3-2.7,6-6,6h-15c-3.3,0-6-2.7-6-6v-51.4
		C379.9,1051.1,382.6,1048.4,385.9,1048.4z"/>
	<line id="XMLID_5_" class="st0" x1="379.9" y1="1080.1" x2="317.5" y2="1080.1"/>
	<line id="XMLID_4_" class="st0" x1="469.4" y1="1080.1" x2="406.9" y2="1080.1"/>
	<path id="XMLID_7_" class="st0" d="M393.4,1111.8v61.5c0,0,0,34.4,0,61.2s-1.4,38.8-44.7,38.8s-31.2,38.8-31.2,67.1"/>
</g>
<g id="XMLID_14_">
	
		<rect id="XMLID_8_" x="32.6" y="968.9" transform="matrix(-1 -7.925084e-03 7.925084e-03 -1 141.6992 2363.5898)" class="st0" width="86" height="425.2"/>
	<line id="XMLID_10_" class="st0" x1="119.4" y1="1074.7" x2="83.8" y2="1074.4"/>
	<line id="XMLID_9_" class="st0" x1="118.8" y1="1141.7" x2="83.3" y2="1141.5"/>
	<line id="XMLID_11_" class="st0" x1="118.3" y1="1206.5" x2="82.8" y2="1206.2"/>
	<line id="XMLID_12_" class="st0" x1="117.7" y1="1282.1" x2="82.2" y2="1281.8"/>
	<line id="XMLID_13_" class="st0" x1="117.2" y1="1340.6" x2="81.7" y2="1340.3"/>
</g>
<g id="XMLID_22_">
	
		<rect id="XMLID_15_" x="574.5" y="955.8" transform="matrix(0.9999 -1.017776e-02 1.017776e-02 0.9999 -11.9032 7.5716)" class="st0" width="327" height="434.9"/>
	<g id="XMLID_21_">
		<path id="XMLID_16_" class="st0" d="M600.4,1013.2l-61.6,0.6c-3.3,0-6-2.6-6.1-5.9l0-4.1c0-3.3,2.6-6,5.9-6.1l61.6-0.6
			c3.3,0,6,2.6,6.1,5.9l0,4.1C606.4,1010.5,603.7,1013.2,600.4,1013.2z"/>
		<path id="XMLID_17_" class="st0" d="M603.9,1352.2l-61.6,0.6c-3.3,0-6-2.6-6.1-5.9l0-4.1c0-3.3,2.6-6,5.9-6.1l61.6-0.6
			c3.3,0,6,2.6,6.1,5.9l0,4.1C609.9,1349.5,607.2,1352.2,603.9,1352.2z"/>
		<path id="XMLID_18_" class="st0" d="M603,1267.5l-61.6,0.6c-3.3,0-6-2.6-6.1-5.9l0-4.1c0-3.3,2.6-6,5.9-6.1l61.6-0.6
			c3.3,0,6,2.6,6.1,5.9l0,4.1C609,1264.7,606.3,1267.5,603,1267.5z"/>
		<path id="XMLID_19_" class="st0" d="M602.2,1182.7l-61.6,0.6c-3.3,0-6-2.6-6.1-5.9l0-4.1c0-3.3,2.6-6,5.9-6.1l61.6-0.6
			c3.3,0,6,2.6,6.1,5.9l0,4.1C608.1,1180,605.5,1182.7,602.2,1182.7z"/>
		<path id="XMLID_20_" class="st0" d="M601.3,1098l-61.6,0.6c-3.3,0-6-2.6-6.1-5.9l0-4.1c0-3.3,2.6-6,5.9-6.1l61.6-0.6
			c3.3,0,6,2.6,6.1,5.9l0,4.1C607.3,1095.2,604.6,1098,601.3,1098z"/>
	</g>
</g>
<g id="XMLID_26_">
	<rect id="XMLID_23_" x="205.2" y="886.3" class="st0" width="46" height="467.7"/>
	<line id="XMLID_25_" class="st0" x1="228.2" y1="1353.9" x2="228.2" y2="886.3"/>
	<polyline id="XMLID_24_" class="st0" points="251.2,886.3 228.2,809.7 205.2,886.3 	"/>
</g>
<g id="XMLID_28_">
	<path id="XMLID_27_" class="st0" d="M1035.2,1106.5h-78c-3.3,0-6-2.7-6-6v-209c0-3.3,2.7-6,6-6h78c3.3,0,6,2.7,6,6v209
		C1041.2,1103.8,1038.5,1106.5,1035.2,1106.5z"/>
	<line id="XMLID_29_" class="st0" x1="951.2" y1="1038.5" x2="1041.2" y2="1038.5"/>
</g>
<g id="XMLID_34_">
	<path id="XMLID_30_" class="st0" d="M1318.1,1339.6l-143.2-385.3c-1.1-3.1,0.4-6.6,3.5-7.7l148.7-55.3c3.1-1.1,6.6,0.4,7.7,3.5
		l143.2,385.3c1.1,3.1-0.4,6.6-3.5,7.7l-148.7,55.3C1322.7,1344.3,1319.3,1342.7,1318.1,1339.6z"/>
	<circle id="XMLID_31_" class="st0" cx="1252.4" cy="985" r="34.5"/>
	<path id="XMLID_32_" class="st0" d="M1481,1255.6l-94.3-253.7c-1.1-2.9-4.4-4.4-7.3-3.3l0,0c-2.9,1.1-4.4,4.4-3.3,7.3l94.3,253.7
		c1.1,2.9,4.4,4.4,7.3,3.3l0,0C1480.6,1261.8,1482.1,1258.5,1481,1255.6z"/>
	
		<rect id="XMLID_33_" x="1111.7" y="1136.8" transform="matrix(0.3485 0.9373 -0.9373 0.3485 1908.5547 -334.573)" class="st0" width="166.5" height="137.5"/>
</g>
<g id="XMLID_41_">
	<path id="XMLID_35_" class="st0" d="M1684.7,1286l-69.4,30.5c-3,1.3-6.6-0.1-7.9-3.1l-84.3-191.6c-1.3-3,0.1-6.6,3.1-7.9l69.4-30.5
		c3-1.3,6.6,0.1,7.9,3.1l84.3,191.6C1689.1,1281.1,1687.7,1284.6,1684.7,1286z"/>
	<path id="XMLID_36_" class="st0" d="M1596.3,1303l-18.8,8.3c-3,1.3-6.6-0.1-7.9-3.1l-68.2-155.1c-1.3-3,0.1-6.6,3.1-7.9l18.8-8.3
		c3-1.3,6.6,0.1,7.9,3.1l68.2,155.1C1600.7,1298.1,1599.3,1301.7,1596.3,1303z"/>
	<path id="XMLID_38_" class="st0" d="M1576.9,1091.6c0,0-25.8-58.8-51-116.1c-25.2-57.3-1.9-85.4,34.3-101.3s130.8-57.5,130.8-57.5"
		/>
	<path id="XMLID_37_" class="st0" d="M1839.7,976c0,0-25.8-58.8-51-116.1c-25.2-57.3-61.7-59.1-97.8-43.2"/>
	<path id="XMLID_40_" class="st0" d="M1910.6,1186.6l69.4-30.5c3-1.3,4.4-4.9,3.1-7.9l-84.3-191.6c-1.3-3-4.9-4.4-7.9-3.1
		l-69.4,30.5c-3,1.3-4.4,4.9-3.1,7.9l84.3,191.6C1904,1186.6,1907.6,1188,1910.6,1186.6z"/>
	<path id="XMLID_39_" class="st0" d="M1982.9,1133l18.8-8.3c3-1.3,4.4-4.9,3.1-7.9l-68.2-155.1c-1.3-3-4.9-4.4-7.9-3.1l-18.8,8.3
		c-3,1.3-4.4,4.9-3.1,7.9l68.2,155.1C1976.3,1133,1979.9,1134.3,1982.9,1133z"/>
</g>
<g id="XMLID_47_">
	<circle id="XMLID_42_" class="st0" cx="768.7" cy="-23.7" r="158.8"/>
	<circle id="XMLID_43_" class="st0" cx="768.7" cy="-23.7" r="134"/>
	<path id="XMLID_45_" class="st0" d="M830.3,29.7c-17.8-38-74.5,46.9-134.3-14.3"/>
	<path id="XMLID_44_" class="st0" d="M829.8,62.7c-17.8-38-74.5,46.9-134.3-14.3"/>
	<path id="XMLID_46_" class="st0" d="M1008.4,88.4l-92.8-33.7c-3.1-1.1-4.7-4.6-3.6-7.7l10.4-28.8c1.1-3.1,4.6-4.7,7.7-3.6
		l92.8,33.7c3.1,1.1,4.7,4.6,3.6,7.7l-10.4,28.8C1015,87.9,1011.5,89.5,1008.4,88.4z"/>
</g>
<g id="XMLID_53_">
	<path id="XMLID_49_" class="st0" d="M1859.7,1172.8l-151,66.8c-3,1.3-6.6,0-7.9-3.1l-109.9-248.4c-1.3-3,0-6.6,3.1-7.9l151-66.8
		c3-1.3,6.6,0,7.9,3.1l109.9,248.4C1864.1,1167.9,1862.7,1171.5,1859.7,1172.8z"/>
	<path id="XMLID_50_" class="st0" d="M1778.7,1042.6l-111.8,49.5c-3,1.3-6.6,0-7.9-3.1l-37.3-84.3c-1.3-3,0-6.6,3.1-7.9l111.8-49.5
		c3-1.3,6.6,0,7.9,3.1l37.3,84.3C1783.1,1037.7,1781.7,1041.3,1778.7,1042.6z"/>
	<circle id="XMLID_51_" class="st0" cx="1754.6" cy="1139.3" r="52.5"/>
	<circle id="XMLID_52_" class="st0" cx="1754.1" cy="1138.2" r="16.7"/>
</g>
<g id="XMLID_72_">
	<g id="XMLID_58_">
		
			<rect id="XMLID_48_" x="-291.6" y="-365.7" transform="matrix(0.9056 -0.4241 0.4241 0.9056 53.946 27.12)" class="st0" width="759.1" height="516.1"/>
		
			<rect id="XMLID_54_" x="-259.3" y="-335.9" transform="matrix(0.9056 -0.4241 0.4241 0.9056 54.6754 26.9985)" class="st0" width="694.7" height="453"/>
	</g>
	<line id="XMLID_56_" class="st0" x1="-270.4" y1="-190" x2="-78.2" y2="220.3"/>
	<line id="XMLID_55_" class="st0" x1="-205.3" y1="-220.5" x2="-13.1" y2="189.8"/>
	<line id="XMLID_57_" class="st0" x1="-140.1" y1="-251" x2="52" y2="159.3"/>
	<line id="XMLID_59_" class="st0" x1="-75.7" y1="-282.8" x2="116.5" y2="127.5"/>
	<line id="XMLID_60_" class="st0" x1="-10.6" y1="-313.3" x2="181.6" y2="97"/>
	<line id="XMLID_61_" class="st0" x1="54.6" y1="-343.8" x2="246.7" y2="66.5"/>
	<line id="XMLID_62_" class="st0" x1="120.3" y1="-372.9" x2="312.5" y2="37.3"/>
	<line id="XMLID_63_" class="st0" x1="184.8" y1="-404.8" x2="376.9" y2="5.5"/>
	<line id="XMLID_64_" class="st0" x1="250.5" y1="-433.9" x2="442.7" y2="-23.7"/>
	<g id="XMLID_71_">
		<line id="XMLID_66_" class="st0" x1="-300.7" y1="-120.3" x2="328.4" y2="-414.9"/>
		<line id="XMLID_65_" class="st0" x1="-270.4" y1="-55.6" x2="358.7" y2="-350.2"/>
		<line id="XMLID_67_" class="st0" x1="-240.1" y1="9" x2="389" y2="-285.6"/>
		<line id="XMLID_68_" class="st0" x1="-209.8" y1="73.7" x2="419.3" y2="-220.9"/>
		<line id="XMLID_69_" class="st0" x1="-179.5" y1="138.4" x2="449.6" y2="-156.2"/>
		<line id="XMLID_70_" class="st0" x1="-149.3" y1="203" x2="479.8" y2="-91.6"/>
	</g>
</g>
<g id="XMLID_73_">
	<path id="XMLID_74_" class="st0" d="M1150-308.4c-87.6,91.8-84.2,237.2,7.6,324.8s237.2,84.2,324.8-7.6L1150-308.4z"/>
	<line id="XMLID_75_" class="st0" x1="1417.5" y1="56.3" x2="1404.4" y2="5.9"/>
	<line id="XMLID_76_" class="st0" x1="1297.2" y1="79.1" x2="1306.1" y2="22.8"/>
	<line id="XMLID_78_" class="st0" x1="1157.6" y1="16.3" x2="1209" y2="-37.5"/>
	<line id="XMLID_77_" class="st0" x1="1091.7" y1="-101.1" x2="1161" y2="-115.6"/>
	<line id="XMLID_79_" class="st0" x1="1105.4" y1="-241.4" x2="1153.8" y2="-233.1"/>
</g>
<circle id="XMLID_80_" class="st0" cx="1839.7" cy="-91.6" r="265.4"/>
<circle id="XMLID_81_" class="st0" cx="1839.7" cy="-91.6" r="151.3"/>
<path id="XMLID_82_" class="st0" d="M2566.5,609.6l-667.7,222.3c-10.4,3.5-21.8-2.2-25.3-12.7L1726,376.1
	c-3.5-10.4,2.2-21.8,12.7-25.3l667.7-222.3c10.4-3.5,21.8,2.2,25.3,12.7l147.5,443.1C2582.6,594.7,2576.9,606.1,2566.5,609.6z"/>
<path id="XMLID_83_" class="st0" d="M2523,586.1L1919.5,787c-7.8,2.6-16.4-1.7-19-9.5l-109.9-330.2c-2.6-7.8,1.7-16.4,9.5-19
	l603.5-200.9c7.8-2.6,16.4,1.7,19,9.5l109.9,330.2C2535.1,575,2530.8,583.5,2523,586.1z"/>
<g id="XMLID_86_">
	<path id="XMLID_84_" class="st0" d="M219.9,592.6l-371.3,252.1c-8.6,5.9-20.5,3.6-26.4-5l-160-235.6c-5.9-8.6-3.6-20.5,5-26.4
		L38.6,325.6c8.6-5.9,20.5-3.6,26.4,5l160,235.6C230.8,574.9,228.5,586.8,219.9,592.6z"/>
	
		<rect id="XMLID_85_" x="-350" y="481.4" transform="matrix(0.8273 -0.5617 0.5617 0.8273 -305.5644 28.3912)" class="st1" width="486.8" height="59.6"/>
</g>
</svg>
