<?xml version="1.0" encoding="utf-8"?>
<!-- Generator: Adobe Illustrator 19.0.0, SVG Export Plug-In . SVG Version: 6.00 Build 0)  -->
<svg version="1.1" id="Layer_1" xmlns="http://www.w3.org/2000/svg" xmlns:xlink="http://www.w3.org/1999/xlink" x="0px" y="0px"
	 viewBox="0 0 512 512" style="enable-background:new 0 0 512 512;" xml:space="preserve">
<style type="text/css">
	.st0{fill:#2B4C8E;}
	.st1{fill:#FFFFFF;}
	.st2{fill:#5492D6;}
	.st3{fill:#404F77;}
	.st4{fill:#E8E6E8;}
	.st5{opacity:0.2;fill:#3D3D3D;}
	.st6{fill:#545453;}
	.st7{fill:#E87549;}
	.st8{fill:#FFD44D;}
	.st9{fill:#AA3C26;stroke:#AA3C26;stroke-linejoin:round;stroke-miterlimit:10;}
	.st10{font-family:'Roboto-Black';}
	.st11{font-size:17.0695px;}
	.st12{font-size:24px;}
	.st13{font-size:23.0924px;}
</style>
<g id="XMLID_65_">
	<path id="XMLID_21_" class="st0" d="M439.3,349.5h-35.7c-15.5,0-28.3-12.7-28.3-28.3v0c0-13.2,9.2-24.4,21.6-27.5h85.9
		c3.6,0,7.1-0.7,10.3-2c10.9-3.9,18.8-14.4,18.8-26.6v0c0-15.5-12.7-28.3-28.3-28.3h-98.6c-13.6-2.1-24.1-13.8-24.1-28v0
		c0-15.5,12.7-28.3,28.3-28.3l22.2,0.5c15.5,0,28.3-12.7,28.3-28.3v0c0-15.5-12.7-28.3-28.3-28.3h-348c-15.5,0-28.3,12.7-28.3,28.3
		v0c0,15.5,12.7,28.3,28.3,28.3l32.6-0.2c15.5,0,28.3,12.7,28.3,28.3c0,13.6-9.8,25.1-22.7,27.7H77.8c-15.5,0-28.3,12.7-28.3,28.3v0
		c0,15.5,12.7,28.3,28.3,28.3l1.8,0c1.4,0.2,2.8,0.3,4.3,0.3H116c12.9,2.6,22.7,14.1,22.7,27.7v0c0,15.5-12.7,28.3-28.3,28.3
		l-82.2-0.2C12.7,349.5,0,362.2,0,377.8v0c0,15.5,12.7,28.3,28.3,28.3h411c15.5,0,28.3-12.7,28.3-28.3v0
		C467.6,362.2,454.9,349.5,439.3,349.5z"/>
	<polygon id="XMLID_56_" class="st1" points="148,162.5 142.4,165.5 143.4,159.2 138.9,154.7 145.2,153.8 148,148.1 150.8,153.8 
		157.2,154.7 152.6,159.2 153.7,165.5 	"/>
	<polygon id="XMLID_57_" class="st1" points="304,296.9 298.4,299.8 299.5,293.5 294.9,289.1 301.2,288.2 304,282.4 306.9,288.2 
		313.2,289.1 308.6,293.5 309.7,299.8 	"/>
	<polygon id="XMLID_58_" class="st1" points="300,168.1 294.4,171 295.4,164.7 290.9,160.3 297.2,159.3 300,153.6 302.9,159.3 
		309.2,160.3 304.6,164.7 305.7,171 	"/>
	<polygon id="XMLID_59_" class="st1" points="148,377 142.4,380 143.4,373.7 138.9,369.2 145.2,368.3 148,362.5 150.8,368.3 
		157.2,369.2 152.6,373.7 153.7,380 	"/>
	<polygon id="XMLID_60_" class="st1" points="360,165.2 357.2,166.7 357.7,163.5 355.4,161.3 358.6,160.8 360,158 361.4,160.8 
		364.6,161.3 362.3,163.5 362.9,166.7 	"/>
	<polygon id="XMLID_61_" class="st1" points="236.6,191.3 233.7,192.8 234.3,189.7 232,187.4 235.2,187 236.6,184.1 238,187 
		241.2,187.4 238.9,189.7 239.4,192.8 	"/>
	<polygon id="XMLID_62_" class="st1" points="372.7,268.2 369.8,269.7 370.4,266.6 368.1,264.3 371.3,263.9 372.7,261 374.1,263.9 
		377.2,264.3 375,266.6 375.5,269.7 	"/>
	<polygon id="XMLID_63_" class="st1" points="185,289.7 182.2,291.1 182.7,288 180.4,285.8 183.6,285.3 185,282.4 186.4,285.3 
		189.6,285.8 187.3,288 187.8,291.1 	"/>
	<polygon id="XMLID_64_" class="st1" points="300,374.1 297.2,375.6 297.7,372.5 295.4,370.2 298.6,369.8 300,366.9 301.4,369.8 
		304.6,370.2 302.3,372.5 302.9,375.6 	"/>
</g>
<g id="XMLID_66_">
	<g id="XMLID_67_">
		<path id="XMLID_89_" class="st2" d="M222.5,424.4h11.2c1.6,0,3-1.3,3-3v-11.3c0-1.6-1.4-3-3-3h-11.2c-1.6,0-3,1.4-3,3v11.3
			C219.5,423.1,220.8,424.4,222.5,424.4z"/>
		<path id="XMLID_88_" class="st2" d="M174.8,394.1h24.6c3.3,0,6-2.7,6-6v-40.5c0-3.3-2.7-6-6-6h-24.6c-3.3,0-6,2.7-6,6v40.5
			C168.8,391.4,171.5,394.1,174.8,394.1z"/>
		<path id="XMLID_87_" class="st2" d="M252.9,424.4h11.2c1.6,0,3-1.3,3-3v-11.3c0-1.6-1.4-3-3-3h-11.2c-1.7,0-3,1.4-3,3v11.3
			C249.9,423.1,251.3,424.4,252.9,424.4z"/>
		<path id="XMLID_86_" class="st3" d="M172.7,394.1h28.9c2.1,0,3.9-1.7,3.9-3.9V388c0-2.1-1.7-3.9-3.9-3.9h-28.9
			c-2.1,0-3.9,1.7-3.9,3.9v2.2C168.8,392.4,170.5,394.1,172.7,394.1z"/>
		<g id="XMLID_83_">
			<path id="XMLID_85_" class="st4" d="M204.1,410.2h73.6c3.3,0,6-2.7,6-6v-68.4c0-3.3-2.7-6-6-6h-73.6c-3.3,0-6,2.7-6,6v68.4
				C198.1,407.5,200.8,410.2,204.1,410.2z"/>
			<path id="XMLID_84_" class="st5" d="M204.1,410.2h30.8c3.3,0,6-2.7,6-6v-68.4c0-3.3-2.7-6-6-6h-30.8c-3.3,0-6,2.7-6,6v68.4
				C198.1,407.5,200.8,410.2,204.1,410.2z"/>
		</g>
		<g id="XMLID_76_">
			<g id="XMLID_79_">
				<path id="XMLID_82_" class="st1" d="M162.3,337.5h168.6c3.3,0,6-2.7,6-6V221.7c0-3.3-2.7-6-6-6H162.3c-3.3,0-6,2.7-6,6v109.8
					C156.3,334.8,159,337.5,162.3,337.5z"/>
				<path id="XMLID_81_" class="st6" d="M207.9,265.3c0,0,27.1,29.4,27.1,61.3c0,1.7,1.4,3.2,3.2,3.2h90.4c1.7,0,3.2-1.4,3.2-3.2
					v-100c0-1.7-1.4-3.2-3.2-3.2H235h-23.9c-1.7,0-3.2,1.4-3.2,3.2V265.3z"/>
				<path id="XMLID_80_" class="st5" d="M162.3,337.5h79.2c3.3,0,6-2.7,6-6V221.7c0-3.3-2.7-6-6-6h-79.2c-3.3,0-6,2.7-6,6v109.8
					C156.3,334.8,159,337.5,162.3,337.5z"/>
			</g>
			<polygon id="XMLID_77_" class="st2" points="284.1,279.6 270.1,269.7 256,279.6 256,266.2 270.1,256.3 284.1,266.2 			"/>
			<polygon id="XMLID_99_" class="st2" points="327.3,279.6 313.2,269.7 299.1,279.6 299.1,266.2 313.2,256.3 327.3,266.2 			"/>
		</g>
		<path id="XMLID_75_" class="st2" d="M254,357.9h17.4c2.3,0,4.1-1.9,4.1-4.1v-2.4c0-2.3-1.9-4.1-4.1-4.1H254
			c-2.3,0-4.1,1.9-4.1,4.1v2.4C249.9,356,251.8,357.9,254,357.9z"/>
		<g id="XMLID_68_">
			<g id="XMLID_72_">
				<path id="XMLID_74_" class="st2" d="M219.7,386.1h22.9c3.3,0,6-2.7,6-6v-15c0-3.3-2.7-6-6-6h-22.9c-3.3,0-6,2.7-6,6v15
					C213.7,383.4,216.4,386.1,219.7,386.1z"/>
				<path id="XMLID_73_" class="st6" d="M232.3,384.2h7.9c3.3,0,6-2.7,6-6v-10.8c0-3.3-2.7-6-6-6h-7.9c-3.3,0-6,2.7-6,6v10.8
					C226.3,381.5,229,384.2,232.3,384.2z"/>
			</g>
			<g id="XMLID_69_">
				<path id="XMLID_71_" class="st2" d="M284.5,386.1h22.9c3.3,0,6-2.7,6-6v-15c0-3.3-2.7-6-6-6h-22.9c-3.3,0-6,2.7-6,6v15
					C278.5,383.4,281.2,386.1,284.5,386.1z"/>
				<path id="XMLID_70_" class="st6" d="M297.1,384.2h7.9c3.3,0,6-2.7,6-6v-10.8c0-3.3-2.7-6-6-6h-7.9c-3.3,0-6,2.7-6,6v10.8
					C291.1,381.5,293.8,384.2,297.1,384.2z"/>
			</g>
		</g>
	</g>
</g>
<g id="XMLID_4_">
	<g id="XMLID_2_">
		<path id="XMLID_26_" class="st7" d="M111.8,182.8c-1.9,0-3.6-1.1-4.5-2.8l-11.2-22.7l-25-3.6c-1.9-0.3-3.5-1.6-4-3.4
			c-0.6-1.8-0.1-3.8,1.3-5.1l18.1-17.7L82,102.6c-0.3-1.9,0.4-3.8,2-4.9c0.9-0.6,1.9-1,2.9-1c0.8,0,1.6,0.2,2.3,0.6l22.4,11.7
			L134,97.3c0.7-0.4,1.5-0.6,2.3-0.6c1,0,2.1,0.3,2.9,0.9c1.5,1.1,2.3,3,2,4.9l-4.2,24.9l18.1,17.6c1.4,1.3,1.9,3.3,1.3,5.1
			c-0.6,1.8-2.1,3.1-4,3.4l-25,3.7L116.3,180C115.4,181.7,113.7,182.8,111.8,182.8C111.8,182.8,111.8,182.8,111.8,182.8z"/>
		<path id="XMLID_23_" class="st7" d="M136.4,101.7l-4.7,27.5l20,19.4l-27.6,4.1l-12.3,25.1l-12.4-25l-27.6-4l20-19.5l-4.8-27.5
			l24.7,12.9L136.4,101.7 M136.4,91.7c-1.6,0-3.2,0.4-4.7,1.2l-20,10.6L91.6,92.9c-1.5-0.8-3.1-1.1-4.6-1.1c-2.1,0-4.1,0.6-5.9,1.9
			c-3.1,2.2-4.6,6-4,9.8l3.9,22.3l-16.2,15.8c-2.7,2.7-3.7,6.6-2.5,10.3c1.2,3.6,4.3,6.3,8.1,6.8l22.4,3.2l10.1,20.3
			c1.7,3.4,5.2,5.6,9,5.6c0,0,0,0,0,0c3.8,0,7.3-2.2,9-5.6l10-20.3l22.4-3.3c3.8-0.6,6.9-3.2,8.1-6.8c1.2-3.6,0.2-7.6-2.6-10.2
			l-16.3-15.8l3.8-22.3c0.6-3.8-0.9-7.5-4-9.8C140.5,92.3,138.4,91.7,136.4,91.7L136.4,91.7z"/>
	</g>
	<g id="XMLID_1_">
		<path id="XMLID_36_" class="st8" d="M108.9,170.4c-0.9,0-1.8-0.5-2.2-1.4l-10.1-20.3l-22.4-3.2c-0.9-0.1-1.7-0.8-2-1.7
			c-0.3-0.9-0.1-1.9,0.6-2.6L89,125.4l-3.9-22.3c-0.2-0.9,0.2-1.9,1-2.4c0.4-0.3,1-0.5,1.5-0.5c0.4,0,0.8,0.1,1.2,0.3l20.1,10.5
			l20-10.6c0.4-0.2,0.8-0.3,1.2-0.3c0.5,0,1,0.2,1.5,0.5c0.8,0.6,1.2,1.5,1,2.4l-3.8,22.3l16.3,15.8c0.7,0.7,0.9,1.7,0.6,2.6
			c-0.3,0.9-1.1,1.6-2,1.7l-22.4,3.3l-10,20.3C110.7,169.9,109.9,170.4,108.9,170.4C108.9,170.4,108.9,170.4,108.9,170.4z"/>
		<path id="XMLID_27_" class="st8" d="M130,102.6l-4,23.6l17.2,16.7l-23.7,3.5l-10.6,21.5l-10.7-21.5L74.5,143l17.1-16.8l-4.1-23.6
			l21.2,11.1L130,102.6 M130,97.6c-0.8,0-1.6,0.2-2.3,0.6l-18.9,10l-18.9-9.9c-0.7-0.4-1.5-0.6-2.3-0.6c-1,0-2.1,0.3-2.9,1
			c-1.5,1.1-2.3,3-2,4.9l3.6,21L71,139.4c-1.4,1.3-1.8,3.3-1.3,5.1c0.6,1.8,2.2,3.1,4,3.4l21.1,3l9.5,19.1c0.8,1.7,2.6,2.8,4.5,2.8
			c0,0,0,0,0,0c1.9,0,3.6-1.1,4.5-2.8l9.4-19.2l21.1-3.1c1.9-0.3,3.4-1.6,4-3.4c0.6-1.8,0.1-3.8-1.3-5.1l-15.3-14.9l3.6-21
			c0.3-1.9-0.5-3.8-2-4.9C132,97.9,131,97.6,130,97.6L130,97.6z"/>
	</g>
	<text id="XMLID_3_" transform="matrix(0.8079 -0.5894 0.5894 0.8079 93.4878 150.6543)" class="st9 st10 st11">JUMP</text>
</g>
<g id="XMLID_5_">
	<g id="XMLID_8_">
		<path id="XMLID_40_" class="st7" d="M395.6,275.2c-0.2,0-0.3,0-0.5,0c-1.9-0.2-3.5-1.4-4.2-3.2l-5.8-15.7l-16.3-4.1
			c-1.8-0.5-3.3-1.9-3.7-3.8c-0.4-1.9,0.3-3.8,1.8-5L380,233l-1.1-16.7c-0.1-1.9,0.8-3.7,2.5-4.7c0.8-0.5,1.6-0.7,2.5-0.7
			c1,0,1.9,0.3,2.8,0.8l14,9.3l15.6-6.2c0.6-0.2,1.2-0.4,1.9-0.4c1.2,0,2.4,0.4,3.3,1.3c1.4,1.3,2,3.2,1.5,5.1l-4.5,16.2l10.8,12.9
			c1.2,1.5,1.5,3.5,0.7,5.2c-0.8,1.7-2.5,2.9-4.4,3l-16.8,0.7l-8.9,14.2C398.9,274.3,397.3,275.2,395.6,275.2z"/>
		<path id="XMLID_37_" class="st7" d="M383.9,215.9l16.2,10.7l18-7.2l-5.2,18.7l12.4,14.9l-19.4,0.8l-10.3,16.4l-6.8-18.2l-18.8-4.7
			l15.2-12.1L383.9,215.9 M383.9,205.9c-1.7,0-3.5,0.4-5,1.4c-3.3,1.9-5.2,5.5-5,9.3l1,14.1l-11.1,8.8c-3,2.4-4.4,6.2-3.6,9.9
			c0.8,3.7,3.6,6.7,7.3,7.6l13.7,3.5l4.9,13.3c1.3,3.6,4.6,6.1,8.4,6.5c0.3,0,0.7,0.1,1,0.1c3.4,0,6.6-1.8,8.5-4.7l7.5-12l14.1-0.6
			c3.8-0.2,7.2-2.5,8.7-5.9c1.5-3.5,1-7.5-1.5-10.5l-9.1-10.9l3.8-13.6c1-3.7-0.1-7.6-3-10.1c-1.9-1.7-4.3-2.6-6.7-2.6
			c-1.3,0-2.5,0.2-3.7,0.7l-13.1,5.3l-11.8-7.8C387.7,206.4,385.8,205.9,383.9,205.9L383.9,205.9z"/>
	</g>
	<g id="XMLID_7_">
		<path id="XMLID_35_" class="st8" d="M398.3,266.1c-0.1,0-0.2,0-0.3,0c-0.9-0.1-1.8-0.7-2.1-1.6l-5.4-14.4l-14.9-3.7
			c-0.9-0.2-1.6-1-1.8-1.9s0.1-1.9,0.9-2.5l12-9.5l-1-15.3c-0.1-0.9,0.4-1.9,1.2-2.3c0.4-0.2,0.8-0.3,1.3-0.3c0.5,0,1,0.1,1.4,0.4
			l12.8,8.5l14.2-5.7c0.3-0.1,0.6-0.2,0.9-0.2c0.6,0,1.2,0.2,1.7,0.6c0.7,0.6,1,1.6,0.7,2.5l-4.1,14.8l9.8,11.8
			c0.6,0.7,0.8,1.7,0.4,2.6s-1.2,1.4-2.2,1.5l-15.3,0.6l-8.2,13C399.9,265.6,399.1,266.1,398.3,266.1z"/>
		<path id="XMLID_32_" class="st8" d="M388.2,216.9l13.9,9.2l15.5-6.2l-4.5,16l10.7,12.8l-16.6,0.7l-8.9,14.1l-5.8-15.6l-16.2-4.1
			l13.1-10.3L388.2,216.9 M388.2,211.9c-0.9,0-1.7,0.2-2.5,0.7c-1.6,1-2.6,2.8-2.5,4.7l0.9,14l-11,8.7c-1.5,1.2-2.2,3.1-1.8,5
			c0.4,1.9,1.8,3.3,3.7,3.8l13.6,3.4l4.9,13.1c0.7,1.8,2.3,3,4.2,3.2c0.2,0,0.3,0,0.5,0c1.7,0,3.3-0.9,4.2-2.3l7.5-11.9l14-0.6
			c1.9-0.1,3.6-1.2,4.4-3c0.8-1.7,0.5-3.8-0.7-5.2l-9-10.8l3.8-13.5c0.5-1.8-0.1-3.8-1.5-5.1c-0.9-0.8-2.1-1.3-3.3-1.3
			c-0.6,0-1.3,0.1-1.9,0.4l-13,5.2l-11.7-7.8C390.1,212.2,389.2,211.9,388.2,211.9L388.2,211.9z"/>
	</g>
	<text id="XMLID_6_" transform="matrix(0.7448 0.6673 -0.6673 0.7448 383.7776 234.9143)" class="st9 st10 st12">HI!</text>
</g>
<g id="XMLID_9_">
	<g id="XMLID_12_">
		<path id="XMLID_54_" class="st7" d="M327.5,183.7c-1.4,0-2.8-0.6-3.8-1.7l-23-26.6l-34.9,3.9c-0.2,0-0.4,0-0.6,0
			c-1.7,0-3.3-0.9-4.2-2.3c-1-1.6-1.1-3.6-0.1-5.3l18.2-30.1l-14.5-32c-0.8-1.7-0.5-3.8,0.7-5.2c1-1.2,2.4-1.8,3.9-1.8
			c0.4,0,0.8,0,1.1,0.1l34.2,8l26-23.7c0.9-0.9,2.1-1.3,3.4-1.3c0.6,0,1.2,0.1,1.8,0.3c1.8,0.7,3,2.3,3.2,4.2l3,35l30.5,17.4
			c1.7,0.9,2.6,2.7,2.5,4.6c-0.1,1.9-1.3,3.6-3,4.3l-32.4,13.7l-7.1,34.4c-0.4,1.9-1.8,3.3-3.6,3.8
			C328.4,183.6,328,183.7,327.5,183.7z"/>
		<path id="XMLID_51_" class="st7" d="M333.9,70.7l3.2,37.6L370,127l-34.8,14.7l-7.6,37l-24.7-28.6l-37.5,4.2l19.5-32.3l-15.6-34.4
			l36.8,8.6L333.9,70.7 M333.9,60.7c-2.5,0-4.9,0.9-6.7,2.6l-24,21.9l-31.7-7.4c-0.8-0.2-1.5-0.3-2.3-0.3c-3,0-5.8,1.3-7.7,3.7
			c-2.4,2.9-2.9,7-1.4,10.5l13.4,29.6l-16.8,27.8c-2,3.3-1.9,7.4,0.1,10.6c1.9,2.9,5,4.6,8.4,4.6c0.4,0,0.7,0,1.1-0.1l32.3-3.6
			l21.3,24.6c1.9,2.2,4.7,3.5,7.6,3.5c0.8,0,1.7-0.1,2.5-0.3c3.7-1,6.5-3.9,7.3-7.7l6.6-31.8l30-12.6c3.5-1.5,5.9-4.8,6.1-8.6
			c0.2-3.8-1.7-7.4-5-9.3l-28.3-16.1l-2.8-32.4c-0.3-3.8-2.8-7.1-6.3-8.5C336.4,60.9,335.1,60.7,333.9,60.7L333.9,60.7z"/>
	</g>
	<g id="XMLID_11_">
		<path id="XMLID_50_" class="st8" d="M327.9,167.2c-0.7,0-1.4-0.3-1.9-0.9l-20.4-23.5l-30.9,3.4c-0.1,0-0.2,0-0.3,0
			c-0.8,0-1.6-0.4-2.1-1.2c-0.5-0.8-0.5-1.8,0-2.6l16.1-26.6l-12.8-28.3c-0.4-0.9-0.3-1.9,0.3-2.6c0.5-0.6,1.2-0.9,1.9-0.9
			c0.2,0,0.4,0,0.6,0.1l30.3,7.1l23-21c0.5-0.4,1.1-0.7,1.7-0.7c0.3,0,0.6,0.1,0.9,0.2c0.9,0.3,1.5,1.2,1.6,2.1l2.7,31l27,15.4
			c0.8,0.5,1.3,1.4,1.3,2.3c-0.1,1-0.6,1.8-1.5,2.2l-28.7,12.1l-6.3,30.5c-0.2,0.9-0.9,1.7-1.8,1.9
			C328.4,167.2,328.1,167.2,327.9,167.2z"/>
		<path id="XMLID_47_" class="st8" d="M333.4,72l2.8,32.3l28.2,16l-29.9,12.6l-6.5,31.8l-21.2-24.5l-32.2,3.6l16.8-27.8l-13.4-29.5
			l31.6,7.4L333.4,72 M333.4,67c-1.2,0-2.4,0.5-3.4,1.3l-22,20.1l-29-6.8c-0.4-0.1-0.8-0.1-1.1-0.1c-1.5,0-2.9,0.7-3.9,1.8
			c-1.2,1.5-1.5,3.5-0.7,5.2l12.3,27.1l-15.4,25.5c-1,1.6-1,3.7,0.1,5.3c0.9,1.4,2.5,2.3,4.2,2.3c0.2,0,0.4,0,0.6,0l29.6-3.3
			l19.5,22.5c1,1.1,2.3,1.7,3.8,1.7c0.4,0,0.8-0.1,1.3-0.2c1.8-0.5,3.3-2,3.6-3.8l6-29.2l27.5-11.6c1.8-0.7,2.9-2.4,3-4.3
			c0.1-1.9-0.9-3.7-2.5-4.6l-25.9-14.7l-2.5-29.7c-0.2-1.9-1.4-3.5-3.2-4.2C334.6,67.1,334,67,333.4,67L333.4,67z"/>
	</g>
	<text id="XMLID_10_" transform="matrix(0.9312 0.3645 -0.3645 0.9312 276.9335 110.669)" class="st9 st10 st13">Ground</text>
</g>
</svg>
