<?xml version="1.0" encoding="utf-8"?>
<!-- Generator: Adobe Illustrator 19.0.0, SVG Export Plug-In . SVG Version: 6.00 Build 0)  -->
<svg version="1.1" id="Layer_1" xmlns="http://www.w3.org/2000/svg" xmlns:xlink="http://www.w3.org/1999/xlink" x="0px" y="0px"
	 viewBox="0 0 512 512" style="enable-background:new 0 0 512 512;" xml:space="preserve">
<style type="text/css">
	.st0{fill:#2B4C8E;}
	.st1{fill:#FFFFFF;}
	.st2{fill:#D283DD;}
	.st3{fill:#71417A;}
	.st4{fill:#E8E6E8;}
	.st5{opacity:0.2;fill:#3D3D3D;}
	.st6{fill:#545453;}
	.st7{fill:#5492D6;}
	.st8{fill:#404F77;}
	.st9{fill:#E87549;}
	.st10{fill:#FFD44D;}
</style>
<g id="XMLID_65_">
	<path id="XMLID_21_" class="st0" d="M438.8,425.4h-35.6c-15.5,0-28.2-12.7-28.2-28.2v0c0-13.2,9.2-24.4,21.6-27.4h85.8
		c3.6,0,7.1-0.7,10.3-2c10.9-3.9,18.8-14.4,18.8-26.6v0c0-15.5-12.7-28.2-28.2-28.2h-98.5c-13.5-2-24-13.8-24-27.9v0
		c0-15.5,12.7-28.2,28.2-28.2l22.2,0.5c15.5,0,28.2-12.7,28.2-28.2v0c0-15.5-12.7-28.2-28.2-28.2H63.6c-15.5,0-28.2,12.7-28.2,28.2
		v0c0,15.5,12.7,28.2,28.2,28.2l32.6-0.2c15.5,0,28.2,12.7,28.2,28.2c0,13.6-9.8,25.1-22.6,27.7H77.8c-15.5,0-28.2,12.7-28.2,28.2v0
		c0,15.5,12.7,28.2,28.2,28.2l1.8,0c1.4,0.2,2.8,0.3,4.3,0.3H116c12.9,2.6,22.6,14.1,22.6,27.7v0c0,15.5-12.7,28.2-28.2,28.2
		l-82.1-0.2c-15.5,0-28.2,12.7-28.2,28.2v0c0,15.5,12.7,28.2,28.2,28.2h410.5c15.5,0,28.2-12.7,28.2-28.2v0
		C467.1,438.1,454.4,425.4,438.8,425.4z"/>
	<polygon id="XMLID_56_" class="st1" points="148,238.6 142.3,241.6 143.4,235.3 138.8,230.8 145.1,229.9 148,224.2 150.8,229.9 
		157.1,230.8 152.5,235.3 153.6,241.6 	"/>
	<polygon id="XMLID_57_" class="st1" points="303.8,372.8 298.1,375.8 299.2,369.5 294.6,365 300.9,364.1 303.8,358.4 306.6,364.1 
		312.9,365 308.3,369.5 309.4,375.8 	"/>
	<polygon id="XMLID_58_" class="st1" points="299.8,244.2 294.1,247.1 295.2,240.8 290.6,236.4 296.9,235.5 299.8,229.7 
		302.6,235.5 308.9,236.4 304.3,240.8 305.4,247.1 	"/>
	<polygon id="XMLID_59_" class="st1" points="148,452.8 142.3,455.8 143.4,449.5 138.8,445 145.1,444.1 148,438.4 150.8,444.1 
		157.1,445 152.5,449.5 153.6,455.8 	"/>
	<polygon id="XMLID_60_" class="st1" points="359.7,241.3 356.8,242.8 357.4,239.6 355.1,237.4 358.3,237 359.7,234.1 361.1,237 
		364.2,237.4 362,239.6 362.5,242.8 	"/>
	<polygon id="XMLID_61_" class="st1" points="236.4,267.4 233.6,268.9 234.1,265.7 231.8,263.5 235,263 236.4,260.2 237.8,263 
		241,263.5 238.7,265.7 239.2,268.9 	"/>
	<polygon id="XMLID_62_" class="st1" points="372.3,344.2 369.5,345.7 370,342.5 367.7,340.3 370.9,339.8 372.3,337 373.7,339.8 
		376.9,340.3 374.6,342.5 375.1,345.7 	"/>
	<polygon id="XMLID_63_" class="st1" points="184.9,365.6 182.1,367.1 182.6,363.9 180.3,361.7 183.5,361.2 184.9,358.4 
		186.3,361.2 189.5,361.7 187.2,363.9 187.7,367.1 	"/>
	<polygon id="XMLID_64_" class="st1" points="299.8,449.9 296.9,451.4 297.5,448.3 295.2,446 298.3,445.6 299.8,442.7 301.2,445.6 
		304.3,446 302,448.3 302.6,451.4 	"/>
</g>
<g id="XMLID_16_">
	<g id="XMLID_17_">
		<path id="XMLID_55_" class="st2" d="M393.5,499.9h-9c-1.4,0-2.6-1.2-2.6-2.6v-9.1c0-1.4,1.2-2.6,2.6-2.6h9c1.4,0,2.6,1.2,2.6,2.6
			v9.1C396.1,498.8,394.9,499.9,393.5,499.9z"/>
		<path id="XMLID_54_" class="st2" d="M432.4,474.8h-19.2c-3.1,0-5.6-2.5-5.6-5.6V437c0-3.1,2.5-5.6,5.6-5.6h19.2
			c3.1,0,5.6,2.5,5.6,5.6v32.3C438,472.3,435.5,474.8,432.4,474.8z"/>
		<path id="XMLID_53_" class="st2" d="M368.3,499.9h-9c-1.4,0-2.6-1.2-2.6-2.6v-9.1c0-1.4,1.2-2.6,2.6-2.6h9c1.4,0,2.6,1.2,2.6,2.6
			v9.1C370.9,498.8,369.8,499.9,368.3,499.9z"/>
		<path id="XMLID_52_" class="st3" d="M436.5,474.8h-27.3c-0.8,0-1.5-0.7-1.5-1.5v-5.2c0-0.8,0.7-1.5,1.5-1.5h27.3
			c0.8,0,1.5,0.7,1.5,1.5v5.2C438,474.2,437.3,474.8,436.5,474.8z"/>
		<g id="XMLID_49_">
			<path id="XMLID_51_" class="st4" d="M407.8,488.1H349c-3.3,0-6-2.7-6-6v-54.5c0-3.3,2.7-6,6-6h58.8c3.3,0,6,2.7,6,6v54.5
				C413.8,485.4,411.1,488.1,407.8,488.1z"/>
			<path id="XMLID_50_" class="st5" d="M407.8,488.1h-23.4c-3.3,0-6-2.7-6-6v-54.5c0-3.3,2.7-6,6-6h23.4c3.3,0,6,2.7,6,6v54.5
				C413.8,485.4,411.1,488.1,407.8,488.1z"/>
		</g>
		<g id="XMLID_41_">
			<g id="XMLID_44_">
				<path id="XMLID_47_" class="st1" d="M442.3,428H305c-3.3,0-6-2.7-6-6v-88.7c0-3.3,2.7-6,6-6h137.3c3.3,0,6,2.7,6,6V422
					C448.3,425.3,445.6,428,442.3,428z"/>
				<path id="XMLID_46_" class="st6" d="M405.7,368.4c0,0-22.4,24.3-22.4,50.7c0,1.4-1.2,2.6-2.6,2.6h-74.7c-1.4,0-2.6-1.2-2.6-2.6
					v-82.7c0-1.4,1.2-2.6,2.6-2.6h77.4H403c1.4,0,2.6,1.2,2.6,2.6V368.4z"/>
				<path id="XMLID_45_" class="st5" d="M442.3,428h-63.5c-3.3,0-6-2.7-6-6v-88.7c0-3.3,2.7-6,6-6h63.5c3.3,0,6,2.7,6,6V422
					C448.3,425.3,445.6,428,442.3,428z"/>
			</g>
			<path id="XMLID_78_" class="st2" d="M313.3,357.1c-2.9,0-5.3,2.4-5.3,5.3v24c0,2.9,2.4,5.3,5.3,5.3h6.5c2.9,0,5.3-2.4,5.3-5.3
				V370L313.3,357.1z"/>
			<path id="XMLID_43_" class="st2" d="M360,357.1c2.9,0,5.3,2.4,5.3,5.3v24c0,2.9-2.4,5.3-5.3,5.3h-6.5c-2.9,0-5.3-2.4-5.3-5.3V370
				L360,357.1z"/>
		</g>
		<path id="XMLID_36_" class="st2" d="M369.3,444.9h-18c-0.9,0-1.6-0.7-1.6-1.6v-5.6c0-0.9,0.7-1.6,1.6-1.6h18
			c0.9,0,1.6,0.7,1.6,1.6v5.6C370.9,444.1,370.2,444.9,369.3,444.9z"/>
		<g id="XMLID_20_">
			<g id="XMLID_32_">
				<path id="XMLID_35_" class="st2" d="M396.7,468.2h-20.6c-2.3,0-4.1-1.8-4.1-4.1V450c0-2.3,1.8-4.1,4.1-4.1h20.6
					c2.3,0,4.1,1.8,4.1,4.1v14.1C400.9,466.4,399,468.2,396.7,468.2z"/>
				<path id="XMLID_34_" class="st6" d="M387.4,466.6H377c-1.7,0-3-1.4-3-3v-12.8c0-1.7,1.4-3,3-3h10.4c1.7,0,3,1.4,3,3v12.8
					C390.5,465.3,389.1,466.6,387.4,466.6z"/>
			</g>
			<g id="XMLID_29_">
				<path id="XMLID_31_" class="st2" d="M343.2,468.2h-20.6c-2.3,0-4.1-1.8-4.1-4.1V450c0-2.3,1.8-4.1,4.1-4.1h20.6
					c2.3,0,4.1,1.8,4.1,4.1v14.1C347.3,466.4,345.4,468.2,343.2,468.2z"/>
				<path id="XMLID_30_" class="st6" d="M333.8,466.6h-10.4c-1.7,0-3-1.4-3-3v-12.8c0-1.7,1.4-3,3-3h10.4c1.7,0,3,1.4,3,3v12.8
					C336.9,465.3,335.5,466.6,333.8,466.6z"/>
			</g>
		</g>
	</g>
</g>
<g id="XMLID_66_">
	<g id="XMLID_67_">
		<path id="XMLID_89_" class="st7" d="M190,383.8h11.2c1.6,0,3-1.4,3-3v-11.3c0-1.6-1.4-3-3-3H190c-1.6,0-3,1.4-3,3v11.3
			C187,382.4,188.3,383.8,190,383.8z"/>
		<path id="XMLID_88_" class="st7" d="M142.4,353.5h24.6c3.3,0,6-2.7,6-6v-40.4c0-3.3-2.7-6-6-6h-24.6c-3.3,0-6,2.7-6,6v40.4
			C136.4,350.8,139.1,353.5,142.4,353.5z"/>
		<path id="XMLID_87_" class="st7" d="M220.4,383.8h11.2c1.6,0,3-1.4,3-3v-11.3c0-1.6-1.4-3-3-3h-11.2c-1.6,0-3,1.4-3,3v11.3
			C217.4,382.4,218.7,383.8,220.4,383.8z"/>
		<path id="XMLID_86_" class="st8" d="M140.2,353.5h28.9c2.1,0,3.9-1.7,3.9-3.9v-2.2c0-2.1-1.7-3.9-3.9-3.9h-28.9
			c-2.1,0-3.9,1.7-3.9,3.9v2.2C136.4,351.8,138.1,353.5,140.2,353.5z"/>
		<g id="XMLID_83_">
			<path id="XMLID_85_" class="st4" d="M171.6,369.6h73.5c3.3,0,6-2.7,6-6v-68.3c0-3.3-2.7-6-6-6h-73.5c-3.3,0-6,2.7-6,6v68.3
				C165.6,366.9,168.3,369.6,171.6,369.6z"/>
			<path id="XMLID_84_" class="st5" d="M171.6,369.6h30.7c3.3,0,6-2.7,6-6v-68.3c0-3.3-2.7-6-6-6h-30.7c-3.3,0-6,2.7-6,6v68.3
				C165.6,366.9,168.3,369.6,171.6,369.6z"/>
		</g>
		<g id="XMLID_76_">
			<g id="XMLID_79_">
				<path id="XMLID_82_" class="st1" d="M129.9,297h168.3c3.3,0,6-2.7,6-6V181.3c0-3.3-2.7-6-6-6H129.9c-3.3,0-6,2.7-6,6V291
					C123.9,294.3,126.6,297,129.9,297z"/>
				<path id="XMLID_81_" class="st6" d="M175.4,224.9c0,0,27.1,29.4,27.1,61.2c0,1.7,1.4,3.2,3.2,3.2h90.3c1.7,0,3.2-1.4,3.2-3.2
					v-99.9c0-1.7-1.4-3.2-3.2-3.2h-93.4h-23.9c-1.7,0-3.2,1.4-3.2,3.2V224.9z"/>
				<path id="XMLID_80_" class="st5" d="M129.9,297H209c3.3,0,6-2.7,6-6V181.3c0-3.3-2.7-6-6-6h-79.1c-3.3,0-6,2.7-6,6V291
					C123.9,294.3,126.6,297,129.9,297z"/>
			</g>
			<polygon id="XMLID_77_" class="st7" points="251.5,239.1 237.5,229.3 223.4,239.1 223.4,225.8 237.5,215.9 251.5,225.8 			"/>
			<polygon id="XMLID_99_" class="st7" points="294.6,239.1 280.6,229.3 266.5,239.1 266.5,225.8 280.6,215.9 294.6,225.8 			"/>
		</g>
		<path id="XMLID_75_" class="st7" d="M221.5,317.3h17.3c2.3,0,4.1-1.9,4.1-4.1v-2.4c0-2.3-1.9-4.1-4.1-4.1h-17.3
			c-2.3,0-4.1,1.9-4.1,4.1v2.4C217.4,315.4,219.2,317.3,221.5,317.3z"/>
		<g id="XMLID_68_">
			<g id="XMLID_72_">
				<path id="XMLID_74_" class="st7" d="M187.2,345.5H210c3.3,0,6-2.7,6-6v-15c0-3.3-2.7-6-6-6h-22.8c-3.3,0-6,2.7-6,6v15
					C181.2,342.8,183.9,345.5,187.2,345.5z"/>
				<path id="XMLID_73_" class="st6" d="M199.8,343.6h7.9c3.3,0,6-2.7,6-6v-10.7c0-3.3-2.7-6-6-6h-7.9c-3.3,0-6,2.7-6,6v10.7
					C193.8,340.9,196.5,343.6,199.8,343.6z"/>
			</g>
			<g id="XMLID_69_">
				<path id="XMLID_71_" class="st7" d="M251.9,345.5h22.8c3.3,0,6-2.7,6-6v-15c0-3.3-2.7-6-6-6h-22.8c-3.3,0-6,2.7-6,6v15
					C245.9,342.8,248.6,345.5,251.9,345.5z"/>
				<path id="XMLID_70_" class="st6" d="M264.5,343.6h7.9c3.3,0,6-2.7,6-6v-10.7c0-3.3-2.7-6-6-6h-7.9c-3.3,0-6,2.7-6,6v10.7
					C258.5,340.9,261.2,343.6,264.5,343.6z"/>
			</g>
		</g>
	</g>
</g>
<g id="XMLID_9_">
	<g id="XMLID_12_">
		<path id="XMLID_33_" class="st9" d="M320.4,160.4c-0.8,0-1.6-0.2-2.3-0.6l-33.8-17.7l-33.7,17.7c-0.7,0.4-1.5,0.6-2.3,0.6
			c-1,0-2.1-0.3-2.9-1c-1.5-1.1-2.3-3-2-4.9l6.4-37.6l-27.3-26.6c-1.4-1.3-1.9-3.3-1.3-5.1c0.6-1.8,2.2-3.1,4-3.4l37.7-5.5
			l16.9-34.2c0.8-1.7,2.6-2.8,4.5-2.8s3.6,1.1,4.5,2.8l16.9,34.2l37.7,5.5c1.9,0.3,3.4,1.6,4,3.4c0.6,1.8,0.1,3.8-1.3,5.1L318.9,117
			l6.4,37.6c0.3,1.9-0.4,3.8-2,4.9C322.4,160.1,321.4,160.4,320.4,160.4z"/>
		<path id="XMLID_26_" class="st9" d="M284.3,44.4l18,36.5l40.3,5.9l-29.2,28.5l6.9,40.2l-36.1-19l-36.1,19l6.9-40.2l-29.2-28.5
			l40.3-5.9L284.3,44.4 M284.3,34.4c-3.8,0-7.3,2.2-9,5.6l-15.7,31.8l-35.1,5.1c-3.8,0.5-6.9,3.2-8.1,6.8c-1.2,3.6-0.2,7.6,2.5,10.3
			l25.4,24.8l-6,35c-0.6,3.8,0.9,7.5,4,9.8c1.7,1.3,3.8,1.9,5.9,1.9c1.6,0,3.2-0.4,4.7-1.1l31.4-16.5l31.4,16.5
			c1.5,0.8,3.1,1.1,4.7,1.1c2.1,0,4.1-0.6,5.9-1.9c3.1-2.2,4.6-6,4-9.8l-6-35l25.4-24.8c2.7-2.7,3.7-6.6,2.5-10.3
			c-1.2-3.6-4.3-6.3-8.1-6.8L309,71.8l-15.7-31.8C291.6,36.5,288.1,34.4,284.3,34.4L284.3,34.4z"/>
	</g>
	<g id="XMLID_11_">
		<path id="XMLID_25_" class="st10" d="M315.3,143.7c-0.4,0-0.8-0.1-1.2-0.3l-29.8-15.7l-29.8,15.7c-0.4,0.2-0.8,0.3-1.2,0.3
			c-0.5,0-1-0.2-1.5-0.5c-0.8-0.6-1.2-1.5-1-2.4l5.7-33.2l-24.1-23.5c-0.7-0.7-0.9-1.7-0.6-2.6c0.3-0.9,1.1-1.6,2-1.7l33.3-4.8
			l14.9-30.2c0.4-0.9,1.3-1.4,2.2-1.4s1.8,0.5,2.2,1.4L301.4,75l33.3,4.8c0.9,0.1,1.7,0.8,2,1.7c0.3,0.9,0,1.9-0.6,2.6L312,107.6
			l5.7,33.2c0.2,0.9-0.2,1.9-1,2.4C316.3,143.6,315.8,143.7,315.3,143.7z"/>
		<path id="XMLID_22_" class="st10" d="M284.3,45.9l15.5,31.4l34.6,5l-25.1,24.4l5.9,34.5l-31-16.3l-31,16.3l5.9-34.5l-25.1-24.4
			l34.6-5L284.3,45.9 M284.3,40.9c-1.9,0-3.6,1.1-4.5,2.8l-14.3,29l-32,4.7c-1.9,0.3-3.4,1.6-4,3.4c-0.6,1.8-0.1,3.8,1.3,5.1
			l23.2,22.6l-5.5,31.9c-0.3,1.9,0.4,3.8,2,4.9c0.9,0.6,1.9,1,2.9,1c0.8,0,1.6-0.2,2.3-0.6l28.7-15.1l28.7,15.1
			c0.7,0.4,1.5,0.6,2.3,0.6c1,0,2.1-0.3,2.9-1c1.5-1.1,2.3-3,2-4.9l-5.5-31.9l23.2-22.6c1.4-1.3,1.9-3.3,1.3-5.1
			c-0.6-1.8-2.2-3.1-4-3.4l-32-4.7l-14.3-29C287.9,42,286.2,40.9,284.3,40.9L284.3,40.9z"/>
	</g>
</g>
</svg>
